<?xml version="1.0" encoding="UTF-8" standalone="no"?>
<svg
   xmlns:dc="http://purl.org/dc/elements/1.1/"
   xmlns:cc="http://creativecommons.org/ns#"
   xmlns:rdf="http://www.w3.org/1999/02/22-rdf-syntax-ns#"
   xmlns:svg="http://www.w3.org/2000/svg"
   xmlns="http://www.w3.org/2000/svg"
   xmlns:sodipodi="http://sodipodi.sourceforge.net/DTD/sodipodi-0.dtd"
   xmlns:inkscape="http://www.inkscape.org/namespaces/inkscape"
   viewBox="0 0 16.00012 16"
   version="1.1"
   id="svg6"
   sodipodi:docname="lyrics.svg"
   width="16.00012"
   height="16"
   inkscape:version="0.92.4 (5da689c313, 2019-01-14)">
  <metadata
     id="metadata10">
    <rdf:RDF>
      <cc:Work
         rdf:about="">
        <dc:format>image/svg+xml</dc:format>
        <dc:type
           rdf:resource="http://purl.org/dc/dcmitype/StillImage" />
        <dc:title></dc:title>
      </cc:Work>
    </rdf:RDF>
  </metadata>
  <sodipodi:namedview
     pagecolor="#ffffff"
     bordercolor="#666666"
     borderopacity="1"
     objecttolerance="10"
     gridtolerance="10"
     guidetolerance="10"
     inkscape:pageopacity="0"
     inkscape:pageshadow="2"
     inkscape:window-width="1920"
     inkscape:window-height="1017"
     id="namedview8"
     showgrid="false"
     inkscape:zoom="22.627417"
     inkscape:cx="5.8562509"
     inkscape:cy="11.836635"
     inkscape:window-x="-8"
     inkscape:window-y="-8"
     inkscape:window-maximized="1"
     inkscape:current-layer="svg6"
     viewbox-width="16"
     scale-x="1"
     viewbox-x="-0.1"
     fit-margin-top="0"
     fit-margin-left="0"
     fit-margin-right="0"
     fit-margin-bottom="0" />
  <defs
     id="defs3051">
    <style
       type="text/css"
       id="current-color-scheme">
      .ColorScheme-Text {
        color:#4d4d4d;
      }
      .ColorScheme-Highlight {
        color:#3daee9;
      }
      </style>
  </defs>
  <path
     style="color:#4d4d4d;fill:currentColor;fill-opacity:1;stroke:none"
     d="M 0,0 V 1 H 16 V 0 Z M 0,3 V 4 H 9 V 3 Z m 13,2 v 1 5.5 C 12.5818,11.1852 12.066,11 11.5,11 10.115,11 9,12.115 9,13.5 9,14.885 10.115,16 11.5,16 12.885,16 14,14.885 14,13.5 V 7 h 2 C 16,5.892 15.108,5 14,5 Z M 0,6 V 7 H 11 V 6 Z m 0,3 v 1 H 9 V 9 Z m 0,3 v 1 h 7 v -1 z m 0,3 v 1 h 7 v -1 z"
     class="ColorScheme-Text"
     id="path4"
     inkscape:connector-curvature="0" />
  <path
     style="fill:#000000;fill-opacity:1;stroke-width:0.03295837"
     d="M 11.0548,15.947286 C 10.815028,15.900246 10.589633,15.817905 10.310759,15.675481 9.94689,15.489649 9.510674,15.053661 9.316024,14.681265 8.599096,13.30967 9.246774,11.645517 10.688352,11.155206 c 0.697445,-0.237217 1.451583,-0.160573 2.077215,0.211108 0.124489,0.07396 0.234875,0.134469 0.245301,0.134469 0.01043,0 0.01896,-1.462586 0.01896,-3.250191 V 5.0004019 l 0.667407,0.015944 c 0.709152,0.016941 0.853842,0.042764 1.194741,0.2132246 0.368652,0.1843378 0.69612,0.5166398 0.894062,0.9072587 0.08392,0.1656112 0.157479,0.4294683 0.192943,0.6921051 l 0.02114,0.1565523 h -1.006245 -1.006244 l -0.0092,3.4853474 -0.0092,3.485347 -0.07745,0.230709 c -0.309588,0.922251 -1.001055,1.560053 -1.890494,1.743772 -0.270866,0.05595 -0.706921,0.06361 -0.946397,0.01662 z"
     id="path3725"
     inkscape:connector-curvature="0" />
  <path
     style="fill:#000000;fill-opacity:1;stroke-width:0.03295837"
     d="m 0.0112695,15.505224 v -0.477896 h 3.4935869 3.4935869 v 0.477896 0.477897 H 3.5048564 0.0112695 Z"
     id="path3727"
     inkscape:connector-curvature="0" />
  <path
     style="fill:#000000;fill-opacity:1;stroke-width:0.03295837"
     d="m 0.0112695,12.506013 v -0.477896 h 3.4935869 3.4935869 v 0.477896 0.477896 H 3.5048564 0.0112695 Z"
     id="path3729"
     inkscape:connector-curvature="0" />
  <path
     style="fill:#000000;fill-opacity:1;stroke-width:0.03295837"
     d="M 0.0112695,9.506802 V 9.028905 H 4.4936075 8.975945 V 9.506802 9.984698 H 4.4936075 0.0112695 Z"
     id="path3731"
     inkscape:connector-curvature="0" />
  <path
     style="fill:#000000;fill-opacity:1;stroke-width:0.03295837"
     d="M 0.0112695,6.5075901 V 6.0296938 H 5.4988376 10.986406 V 6.5075901 6.9854865 H 5.4988376 0.0112695 Z"
     id="path3733"
     inkscape:connector-curvature="0" />
  <path
     style="fill:#000000;fill-opacity:1;stroke-width:0.03295837"
     d="M 0.0112695,3.5083787 V 3.0304824 H 4.4936075 8.975945 V 3.5083787 3.9862751 H 4.4936075 0.0112695 Z"
     id="path3735"
     inkscape:connector-curvature="0" />
  <path
     style="fill:#000000;fill-opacity:1;stroke-width:0.03295837"
     d="M 0.0112695,0.5091674 V 0.031271 H 8.003674 15.996078 V 0.5091674 0.9870637 H 8.003674 0.0112695 Z"
     id="path3737"
     inkscape:connector-curvature="0" />
</svg>
