<?xml version="1.0" encoding="UTF-8" standalone="no"?>
<svg
   xmlns:dc="http://purl.org/dc/elements/1.1/"
   xmlns:cc="http://creativecommons.org/ns#"
   xmlns:rdf="http://www.w3.org/1999/02/22-rdf-syntax-ns#"
   xmlns:svg="http://www.w3.org/2000/svg"
   xmlns="http://www.w3.org/2000/svg"
   xmlns:sodipodi="http://sodipodi.sourceforge.net/DTD/sodipodi-0.dtd"
   xmlns:inkscape="http://www.inkscape.org/namespaces/inkscape"
   viewBox="0 0 521.1234 520.40503"
   version="1.1"
   id="svg6"
   sodipodi:docname="lyrics.svg"
   width="521.12341"
   height="520.40503"
   inkscape:version="0.92.4 (5da689c313, 2019-01-14)">
  <metadata
     id="metadata10">
    <rdf:RDF>
      <cc:Work
         rdf:about="">
        <dc:format>image/svg+xml</dc:format>
        <dc:type
           rdf:resource="http://purl.org/dc/dcmitype/StillImage" />
        <dc:title></dc:title>
      </cc:Work>
    </rdf:RDF>
  </metadata>
  <sodipodi:namedview
     pagecolor="#ffffff"
     bordercolor="#666666"
     borderopacity="1"
     objecttolerance="10"
     gridtolerance="10"
     guidetolerance="10"
     inkscape:pageopacity="0"
     inkscape:pageshadow="2"
     inkscape:window-width="1920"
     inkscape:window-height="1017"
     id="namedview8"
     showgrid="false"
     inkscape:zoom="1"
     inkscape:cx="200.0093"
     inkscape:cy="239.02817"
     inkscape:window-x="-8"
     inkscape:window-y="-8"
     inkscape:window-maximized="1"
     inkscape:current-layer="svg6"
     viewbox-width="16"
     scale-x="1"
     viewbox-x="-0.1"
     fit-margin-top="0"
     fit-margin-left="0"
     fit-margin-right="0"
     fit-margin-bottom="0" />
  <defs
     id="defs3051">
    <style
       type="text/css"
       id="current-color-scheme">
      .ColorScheme-Text {
        color:#4d4d4d;
      }
      .ColorScheme-Highlight {
        color:#3daee9;
      }
      </style>
  </defs>
  <path
     style="color:#4d4d4d;fill:#5f7583;fill-opacity:1;stroke:#000000;stroke-width:10;stroke-linecap:square;stroke-linejoin:miter;stroke-miterlimit:4;stroke-dasharray:none;stroke-opacity:1;paint-order:normal"
     d="M 5,5 V 36.90031 H 515.39903 V 5 Z m 0,95.70094 v 31.90031 h 287.09945 v -31.90031 z m 414.69921,63.80062 v 31.90031 175.45173 c -13.34055,-10.04223 -29.79454,-15.95018 -47.84991,-15.95018 -44.18141,0 -79.74985,35.56887 -79.74985,79.7508 0,44.18194 35.56844,79.75078 79.74985,79.75078 44.18142,0 79.74985,-35.56884 79.74985,-79.75078 V 228.30218 h 63.79988 c 0,-35.34554 -28.45475,-63.80062 -63.79988,-63.80062 z M 5,196.40187 v 31.90031 h 350.89933 v -31.90031 z m 0,95.70094 v 31.90031 h 287.09945 v -31.90031 z m 0,95.70094 v 31.90029 h 223.29957 v -31.90029 z m 0,95.70092 V 515.405 h 223.29957 v -31.90033 z"
     class="ColorScheme-Text"
     id="path4"
     inkscape:connector-curvature="0" />
  <path
     style="fill:#5f7583;fill-opacity:1;stroke:#000000;stroke-width:10;stroke-linecap:square;stroke-linejoin:miter;stroke-miterlimit:4;stroke-dasharray:none;stroke-opacity:1;paint-order:normal"
     d="m 357.64745,513.7234 c -7.64871,-1.50053 -14.8388,-4.12731 -23.73486,-8.67067 -11.6074,-5.92809 -25.52267,-19.83623 -31.73199,-31.71581 -22.86996,-43.7543 -2.20907,-96.84131 43.77718,-112.48238 22.24845,-7.56728 46.30541,-5.12231 66.26303,6.73441 3.9712,2.35923 7.4925,4.2896 7.82509,4.2896 0.33272,0 0.60483,-46.65694 0.60483,-103.68209 V 164.51438 l 21.29024,0.50862 c 22.6219,0.54043 27.2375,1.36417 38.11216,6.80193 11.75998,5.88043 22.20619,16.48097 28.52053,28.94183 2.67704,5.28305 5.02357,13.70018 6.15486,22.07837 l 0.67437,4.99407 h -32.09915 -32.09913 l -0.29348,111.18368 -0.29347,111.18366 -2.47066,7.35968 c -9.87583,29.42011 -31.93359,49.76618 -60.30664,55.62688 -8.64061,1.78472 -22.55073,2.02909 -30.19,0.53017 z"
     id="path3725"
     inkscape:connector-curvature="0" />
  <path
     style="fill:#5f7583;fill-opacity:1;stroke:#000000;stroke-width:10;stroke-linecap:square;stroke-linejoin:miter;stroke-miterlimit:4;stroke-dasharray:none;stroke-opacity:1;paint-order:normal"
     d="M 5.3594964,499.62147 V 484.37644 H 116.80471 228.24992 v 15.24503 15.24507 H 116.80471 5.3594964 Z"
     id="path3727"
     inkscape:connector-curvature="0" />
  <path
     style="fill:#5f7583;fill-opacity:1;stroke:#000000;stroke-width:10;stroke-linecap:square;stroke-linejoin:miter;stroke-miterlimit:4;stroke-dasharray:none;stroke-opacity:1;paint-order:normal"
     d="M 5.3594964,403.9457 V 388.70067 H 116.80471 228.24992 v 15.24503 15.24503 H 116.80471 5.3594964 Z"
     id="path3729"
     inkscape:connector-curvature="0" />
  <path
     style="fill:#5f7583;fill-opacity:1;stroke:#000000;stroke-width:10;stroke-linecap:square;stroke-linejoin:miter;stroke-miterlimit:4;stroke-dasharray:none;stroke-opacity:1;paint-order:normal"
     d="M 5.3594964,308.26995 V 293.02489 H 148.34581 291.3321 v 15.24506 15.24503 H 148.34581 5.3594964 Z"
     id="path3731"
     inkscape:connector-curvature="0" />
  <path
     style="fill:#5f7583;fill-opacity:1;stroke:#000000;stroke-width:10;stroke-linecap:square;stroke-linejoin:miter;stroke-miterlimit:4;stroke-dasharray:none;stroke-opacity:1;paint-order:normal"
     d="M 5.3594964,212.59415 V 197.34911 H 180.41258 355.46568 v 15.24504 15.24505 H 180.41258 5.3594964 Z"
     id="path3733"
     inkscape:connector-curvature="0" />
  <path
     style="fill:#5f7583;fill-opacity:1;stroke:#000000;stroke-width:10;stroke-linecap:square;stroke-linejoin:miter;stroke-miterlimit:4;stroke-dasharray:none;stroke-opacity:1;paint-order:normal"
     d="M 5.3594964,116.91838 V 101.67334 H 148.34581 291.3321 v 15.24504 15.24504 H 148.34581 5.3594964 Z"
     id="path3735"
     inkscape:connector-curvature="0" />
  <path
     style="fill:#5f7583;fill-opacity:1;stroke:#000000;stroke-width:10;stroke-linecap:square;stroke-linejoin:miter;stroke-miterlimit:4;stroke-dasharray:none;stroke-opacity:1;paint-order:normal"
     d="M 5.3594964,21.2426 V 5.99756 H 260.31672 515.27392 V 21.2426 36.48764 H 260.31672 5.3594964 Z"
     id="path3737"
     inkscape:connector-curvature="0" />
</svg>
