<svg width="1355" height="720" viewBox="0 0 1355 720" fill="none" xmlns="http://www.w3.org/2000/svg">
<path d="M0 712.155V6.10167H63.9771C79.4674 6.10167 91.7748 13.9467 100.899 29.6368C110.236 44.7458 117.026 66.8281 121.27 95.8838C125.514 124.939 127.636 160.097 127.636 201.356C127.636 238.547 125.196 270.799 120.315 298.111C115.647 325.424 108.644 346.634 99.3077 361.743C89.9711 376.271 78.3003 383.535 64.2954 383.535H35.9672V712.155H0ZM35.9672 312.93H52.5185C62.9161 312.93 71.0857 309.734 77.0272 303.341C82.9686 296.949 87.2126 285.908 89.7589 270.218C92.3053 253.947 93.5784 231.283 93.5784 202.228C93.5784 168.523 92.6236 142.663 90.7138 124.649C89.0162 106.634 85.3028 94.1404 79.5735 87.1671C73.8442 80.1937 64.932 76.707 52.8368 76.707H35.9672V312.93Z" fill="white" fill-opacity="0.05"/>
<path d="M152.93 712.155V6.10167H204.812C222 6.10167 236.217 12.4939 247.464 25.2784C258.71 37.4818 266.986 57.5303 272.291 85.4237C277.808 112.736 280.566 148.765 280.566 193.511C280.566 220.823 279.505 245.811 277.383 268.475C275.261 290.557 271.866 309.443 267.198 325.133C262.53 340.242 256.376 351.283 248.737 358.257L285.341 712.155H250.647L216.907 380.92H188.898V712.155H152.93ZM188.898 310.315H202.584C212.77 310.315 221.045 306.828 227.411 299.855C233.777 292.881 238.445 280.969 241.416 264.116C244.387 247.264 245.872 223.729 245.872 193.511C245.872 152.252 243.114 122.615 237.597 104.6C232.079 86.0048 221.151 76.707 204.812 76.707H188.898V310.315Z" fill="white" fill-opacity="0.05"/>
<path d="M383.87 720C366.47 720 352.571 710.702 342.174 692.107C331.776 673.511 324.349 647.07 319.893 612.784C315.437 577.918 313.209 537.24 313.209 490.751V223.148C313.209 176.659 315.437 136.852 319.893 103.729C324.561 70.0242 331.988 44.4552 342.174 27.0218C352.571 9.00727 366.47 0 383.87 0C401.27 0 415.063 9.00727 425.248 27.0218C435.434 45.0363 442.754 70.6053 447.211 103.729C451.879 136.852 454.213 176.659 454.213 223.148V491.622C454.213 537.53 451.879 577.627 447.211 611.913C442.754 646.199 435.434 672.93 425.248 692.107C415.063 710.702 401.27 720 383.87 720ZM383.87 642.421C393.419 642.421 400.634 637.191 405.514 626.731C410.395 615.69 413.684 600.581 415.381 581.404C417.079 561.646 417.927 538.693 417.927 512.542V203.099C417.927 176.949 417.079 154.576 415.381 135.981C413.684 116.804 410.395 102.276 405.514 92.3971C400.634 81.937 393.419 76.707 383.87 76.707C374.321 76.707 367 81.937 361.908 92.3971C357.027 102.276 353.738 116.804 352.041 135.981C350.343 154.576 349.494 176.949 349.494 203.099V512.542C349.494 538.693 350.343 561.646 352.041 581.404C353.738 600.581 357.027 615.69 361.908 626.731C367 637.191 374.321 642.421 383.87 642.421Z" fill="white" fill-opacity="0.05"/>
<path d="M534.443 712.155L476.832 6.10167H510.571L551.313 526.489L590.144 6.10167H622.929L565.954 712.155H534.443Z" fill="white" fill-opacity="0.05"/>
<path d="M689.733 712.155V462.857L634.032 6.10167H667.453L706.921 346.925L745.753 6.10167H779.492L724.109 462.857V712.155H689.733Z" fill="white" fill-opacity="0.05"/>
<path d="M803.506 712.155V6.10167H859.526C878.623 6.10167 893.689 14.2373 904.723 30.5084C915.97 46.1985 923.927 70.0242 928.595 101.985C933.476 133.947 935.916 173.753 935.916 221.404V481.162C935.916 531.138 933.476 573.269 928.595 607.554C923.927 641.84 916.182 667.99 905.36 686.005C894.75 703.438 880.427 712.155 862.39 712.155H803.506ZM839.473 641.55H859.844C873 641.55 882.337 634.576 887.854 620.63C893.371 606.683 896.66 586.344 897.721 559.613C898.994 532.881 899.631 500.63 899.631 462.857V233.608C899.631 196.998 898.782 167.361 897.084 144.697C895.387 122.034 891.673 105.472 885.944 95.0121C880.215 84.5521 871.196 79.322 858.889 79.322H839.473V641.55Z" fill="white" fill-opacity="0.05"/>
<path d="M971.356 712.155V6.10167H1071.3V79.322H1007.32V312.93H1059.21V382.663H1007.32V641.55H1071.94V712.155H971.356Z" fill="white" fill-opacity="0.05"/>
<path d="M1129.3 712.155V79.322H1085.7V6.10167H1207.6V79.322H1165.27V712.155H1129.3Z" fill="white" fill-opacity="0.05"/>
<path d="M1293.25 720C1278.4 720 1265.98 711.283 1256.01 693.85C1246.25 676.416 1238.82 652.3 1233.73 621.501C1228.64 590.702 1225.67 554.964 1224.82 514.286L1256.65 490.751C1257.28 515.738 1258.66 539.855 1260.79 563.099C1263.12 586.344 1266.83 605.521 1271.93 620.63C1277.02 635.157 1284.13 642.421 1293.25 642.421C1302.59 642.421 1309.59 635.448 1314.26 621.501C1319.14 606.973 1321.58 586.344 1321.58 559.613C1321.58 527.651 1318.93 502.082 1313.62 482.906C1308.32 463.148 1301.63 443.39 1293.57 423.632L1250.28 319.031C1241.79 298.692 1235.53 276.61 1231.5 252.785C1227.47 228.378 1225.45 198.45 1225.45 163.002C1225.45 111.283 1230.87 71.1864 1241.69 42.7119C1252.51 14.2373 1267.26 0 1285.93 0C1296.12 0 1305.03 3.77724 1312.67 11.3317C1320.52 18.3051 1326.99 29.3462 1332.08 44.4552C1337.39 59.5642 1341.53 78.7409 1344.5 101.985C1347.68 124.649 1349.8 151.38 1350.86 182.179L1320.31 204.843C1319.67 181.598 1318.4 160.387 1316.49 141.211C1314.58 121.453 1311.18 105.763 1306.3 94.1404C1301.63 81.937 1294.84 75.8354 1285.93 75.8354C1277.02 75.8354 1270.02 82.5182 1264.92 95.8838C1260.04 108.668 1257.6 127.845 1257.6 153.414C1257.6 174.915 1258.88 192.639 1261.42 206.586C1264.18 220.533 1268.53 234.77 1274.47 249.298L1318.08 353.898C1327.84 377.143 1336.43 405.036 1343.86 437.579C1351.29 469.54 1355 507.603 1355 551.768C1355 586.634 1352.35 616.852 1347.04 642.421C1341.74 667.409 1334.42 686.586 1325.08 699.952C1315.96 713.317 1305.35 720 1293.25 720Z" fill="white" fill-opacity="0.05"/>
</svg>
